<?xml version="1.0" encoding="iso-8859-1"?>
<!-- Generator: Adobe Illustrator 18.0.0, SVG Export Plug-In . SVG Version: 6.00 Build 0)  -->
<!DOCTYPE svg PUBLIC "-//W3C//DTD SVG 1.1//EN" "http://www.w3.org/Graphics/SVG/1.1/DTD/svg11.dtd">
<svg version="1.1" id="Capa_1" xmlns="http://www.w3.org/2000/svg" xmlns:xlink="http://www.w3.org/1999/xlink" x="0px" y="0px"
	 viewBox="0 0 336.387 336.387" style="enable-background:new 0 0 336.387 336.387;" xml:space="preserve">
<g>
	<path d="M152.684,69.453h9.79v55.404c0,2.011,1.63,3.641,3.641,3.641h7.476c2.011,0,3.641-1.63,3.641-3.641V58.617
		c0-2.011-1.63-3.641-3.641-3.641h-20.906c-2.011,0-3.641,1.63-3.641,3.641v7.195C149.043,67.823,150.673,69.453,152.684,69.453z"/>
	<path d="M98.896,267.073H71.468l14.572-15.439c5.796-6.185,12.704-15.364,12.704-23.965c0-11.917-9.561-19.925-23.791-19.925
		c-8.563,0-17.584,3.685-24.75,10.11c-1.257,1.128-1.574,2.971-0.766,4.453l3.305,6.061c0.544,0.998,1.523,1.684,2.646,1.856
		c1.125,0.173,2.264-0.191,3.08-0.98c4.674-4.514,10.482-7.209,15.535-7.209c4.388,0,9.618,1.158,9.618,6.675
		c0,2.685-2.479,7.874-8.02,13.414c-0.036,0.036-0.071,0.072-0.105,0.109l-24.807,26.968c-0.618,0.672-0.961,1.552-0.961,2.465
		v6.246c0,2.011,1.63,3.641,3.641,3.641h45.526c2.011,0,3.641-1.63,3.641-3.641v-7.198
		C102.536,268.703,100.906,267.073,98.896,267.073z"/>
	<path d="M260.619,168.885c-7.059,0-13.885,0.991-20.372,2.805l-20.208-24.779c14.709-13.829,23.921-33.44,23.921-55.173
		c0-41.777-33.988-75.766-75.767-75.766S92.427,49.96,92.427,91.738c0,21.733,9.212,41.345,23.921,55.173L96.14,171.691
		c-6.487-1.814-13.313-2.805-20.372-2.805C33.989,168.885,0,202.873,0,244.649c0,41.777,33.989,75.766,75.768,75.766
		c39.029,0,71.252-29.669,75.32-67.637h34.211c4.068,37.968,36.291,67.637,75.32,67.637c41.778,0,75.768-33.988,75.768-75.766
		C336.387,202.873,302.397,168.885,260.619,168.885z M106.868,91.738c0-33.814,27.511-61.323,61.325-61.323
		s61.325,27.509,61.325,61.323c0,33.813-27.511,61.321-61.325,61.321S106.868,125.551,106.868,91.738z M126.277,154.812
		c12.013,8.009,26.426,12.69,41.916,12.69s29.903-4.681,41.916-12.69l17.614,21.597c-24.051,11.641-41.044,35.632-42.718,63.682
		h-33.625c-1.674-28.05-18.667-52.041-42.718-63.682L126.277,154.812z M75.768,305.972c-33.815,0-61.326-27.509-61.326-61.323
		c0-33.813,27.511-61.321,61.326-61.321c33.813,0,61.321,27.508,61.321,61.321C137.089,278.463,109.58,305.972,75.768,305.972z
		 M260.619,305.972c-33.813,0-61.321-27.509-61.321-61.323c0-33.813,27.509-61.321,61.321-61.321
		c33.815,0,61.326,27.508,61.326,61.321C321.945,278.463,294.435,305.972,260.619,305.972z"/>
	<path d="M266.655,236.316l15.65-17.384c0.602-0.669,0.935-1.536,0.935-2.436v-5.109c0-2.011-1.63-3.641-3.641-3.641h-38.129
		c-2.011,0-3.641,1.63-3.641,3.641v7.196c0,2.011,1.63,3.641,3.641,3.641h20.473l-13.906,15.399
		c-0.604,0.669-0.939,1.539-0.939,2.44v4.824c0,2.011,1.63,3.641,3.641,3.641h8.144c8.505,0,12.817,3.008,12.817,8.94
		c0,6.253-4.758,9.987-12.728,9.987c-5.22,0-10.624-1.977-14.829-5.422c-0.847-0.694-1.959-0.971-3.036-0.751
		c-1.073,0.219-1.991,0.911-2.499,1.882l-3.311,6.34c-0.836,1.603-0.37,3.577,1.095,4.636c6.423,4.642,15.075,7.414,23.146,7.414
		c16.043,0,26.822-9.793,26.822-24.367C286.359,246.066,278.746,238.163,266.655,236.316z"/>
</g>
<g>
</g>
<g>
</g>
<g>
</g>
<g>
</g>
<g>
</g>
<g>
</g>
<g>
</g>
<g>
</g>
<g>
</g>
<g>
</g>
<g>
</g>
<g>
</g>
<g>
</g>
<g>
</g>
<g>
</g>
</svg>
