<?xml version="1.0" encoding="iso-8859-1"?>
<!-- Generator: Adobe Illustrator 16.0.0, SVG Export Plug-In . SVG Version: 6.00 Build 0)  -->
<!DOCTYPE svg PUBLIC "-//W3C//DTD SVG 1.1//EN" "http://www.w3.org/Graphics/SVG/1.1/DTD/svg11.dtd">
<svg version="1.1" id="Capa_1" xmlns="http://www.w3.org/2000/svg" xmlns:xlink="http://www.w3.org/1999/xlink" x="0px" y="0px"
	 width="109.729px" height="109.729px" viewBox="0 0 109.729 109.729" style="enable-background:new 0 0 109.729 109.729;"
	 xml:space="preserve">
<g>
	<g>
		<path d="M109.729,59.461l-15.24-29.788l-0.296-0.25l-29.121-8.958l-19.568,7.614L32.906,13.587l-0.668,0.001L17.34,15.422
			L6.999,29.06l-0.463,0.611L6.323,30.4l-6.1,20.912L0,52.077l0.202,0.609l9.02,27.75l27.536,15.705l0.528-0.017l17.837-11.912
			l0.452-0.28L82.057,69.05l0.496-0.186l26.883-8.702L109.729,59.461z M108.276,58.817L78.158,48.582L93.93,30.78L108.276,58.817z
			 M54.683,82.806L33.996,70.873l22.355-4.792L54.683,82.806z M19.7,46.264l8.029-15.212l8.18,21.527L19.7,46.264z M76.243,47.682
			L63.204,40.63l-0.012-0.519l2.108-17.416L76.243,47.682z M65.924,21.623l27.232,8.524L77.43,47.897L65.924,21.623z M36.386,59.562
			l1.627-5.563l18.25,11.079l-22.896,4.908L36.386,59.562z M38.723,53.258l23.259-11.979l-5.342,22.857L38.723,53.258z
			 M45.01,29.233l16.673,11.076L38.495,52.251L45.01,29.233z M37.278,52.878l-0.155,0.08l-8.421-22.161l15.245-1.482L37.278,52.878z
			 M36.94,54.053l-1.481,5.118l-3.006,10.277L20.156,47.514L36.94,54.053z M57.581,64.504l5.349-22.886l13.473,7.287l-18.49,15.647
			L57.581,64.504z M76.986,49.721l4.316,18.211l-22.069-3.188L76.986,49.721z M62.26,39.484L46.396,28.799l18.032-7.204
			L62.26,39.484z M44.345,28.272l-15.968,1.552l0.223-0.423h-0.153l4.388-14.348L44.345,28.272z M17.882,16.362l14.035-1.727
			L27.402,29.4H7.996L17.882,16.362z M26.942,30.401L18.93,45.58L7.967,30.401H26.942z M7.182,31.023L18.18,46.249L1.262,51.325
			L7.182,31.023z M18.784,47.111l12.563,22.412L1.767,52.216L18.784,47.111z M1.415,53.169l29.882,17.484l-21.231,8.613
			L1.415,53.169z M32.347,71.307l0.362,0.646l3.639,22.798l-25.454-14.74L32.347,71.307z M37.378,94.86l-3.671-23l20.449,11.797
			L37.378,94.86z M55.696,82.719l1.683-16.858l0.715-0.152l0.121-0.102l22.217,3.211L55.696,82.719z M77.979,49.578l29.716,10.099
			L82.321,67.89L77.979,49.578z"/>
	</g>
</g>
<g>
</g>
<g>
</g>
<g>
</g>
<g>
</g>
<g>
</g>
<g>
</g>
<g>
</g>
<g>
</g>
<g>
</g>
<g>
</g>
<g>
</g>
<g>
</g>
<g>
</g>
<g>
</g>
<g>
</g>
</svg>
