<?xml version="1.0" encoding="UTF-8" standalone="no"?>
<!-- Generator: Adobe Illustrator 19.0.0, SVG Export Plug-In . SVG Version: 6.00 Build 0)  -->

<svg
   xmlns:dc="http://purl.org/dc/elements/1.1/"
   xmlns:cc="http://creativecommons.org/ns#"
   xmlns:rdf="http://www.w3.org/1999/02/22-rdf-syntax-ns#"
   xmlns:svg="http://www.w3.org/2000/svg"
   xmlns="http://www.w3.org/2000/svg"
   xmlns:sodipodi="http://sodipodi.sourceforge.net/DTD/sodipodi-0.dtd"
   xmlns:inkscape="http://www.inkscape.org/namespaces/inkscape"
   version="1.1"
   id="Layer_1"
   x="0px"
   y="0px"
   viewBox="0 0 510 123"
   xml:space="preserve"
   sodipodi:docname="cface.svg"
   width="510"
   height="123"
   inkscape:version="0.92.3 (2405546, 2018-03-11)"><metadata
   id="metadata68"><rdf:RDF><cc:Work
       rdf:about=""><dc:format>image/svg+xml</dc:format><dc:type
         rdf:resource="http://purl.org/dc/dcmitype/StillImage" /><dc:title></dc:title></cc:Work></rdf:RDF></metadata><defs
   id="defs66" /><sodipodi:namedview
   pagecolor="#ffffff"
   bordercolor="#666666"
   borderopacity="1"
   objecttolerance="10"
   gridtolerance="10"
   guidetolerance="10"
   inkscape:pageopacity="0"
   inkscape:pageshadow="2"
   inkscape:window-width="1920"
   inkscape:window-height="1027"
   id="namedview64"
   showgrid="false"
   borderlayer="true"
   inkscape:showpageshadow="false"
   inkscape:zoom="2.16"
   inkscape:cx="148.87771"
   inkscape:cy="74.99408"
   inkscape:window-x="0"
   inkscape:window-y="0"
   inkscape:window-maximized="1"
   inkscape:current-layer="Layer_1" />
<style
   type="text/css"
   id="style2">
	.st0{fill-rule:evenodd;clip-rule:evenodd;fill:#FFFFFF;}
	.st1{fill-rule:evenodd;clip-rule:evenodd;fill:url(#SVGID_1_);}
	.st2{fill-rule:evenodd;clip-rule:evenodd;fill:url(#XMLID_77_);}
	.st3{fill-rule:evenodd;clip-rule:evenodd;fill:#339A4D;}
	.st4{fill-rule:evenodd;clip-rule:evenodd;fill:#3C7CB9;}
	.st5{fill-rule:evenodd;clip-rule:evenodd;fill:#445DA6;}
	.st6{fill-rule:evenodd;clip-rule:evenodd;fill:#818181;}
</style>
<g
   id="g61"
   transform="matrix(0.5,0,0,0.5,-156.47257,-156.16426)">
	<polygon
   id="XMLID_75_"
   class="st0"
   points="710.5,0 1421,0 1421,871 710.5,871 0,871 0,0 "
   style="clip-rule:evenodd;fill:#ffffff;fill-rule:evenodd" />
	<g
   id="g59">
		<g
   id="g34">
			
				<radialGradient
   id="SVGID_1_"
   cx="477.96649"
   cy="430.6095"
   r="127.1012"
   gradientTransform="matrix(-0.0788036,-0.9969,0.7273,-0.05749511,202.4362,931.8475)"
   gradientUnits="userSpaceOnUse">
				<stop
   offset="0"
   style="stop-color:#37B6DC"
   id="stop5" />
				<stop
   offset="0.49"
   style="stop-color:#1E96CC"
   id="stop7" />
				<stop
   offset="0.63"
   style="stop-color:#2686C1"
   id="stop9" />
				<stop
   offset="0.76"
   style="stop-color:#2E76B7"
   id="stop11" />
				<stop
   offset="0.88"
   style="stop-color:#3266AE"
   id="stop13" />
				<stop
   offset="1"
   style="stop-color:#3855A5"
   id="stop15" />
			</radialGradient>
			<path
   class="st1"
   d="m 519,443.9 -24.8,26.2 26.9,-0.2 c 0.6,-1.4 2.6,-2.5 4.8,-3.8 1,-0.5 2,-1.1 2.9,-1.7 2.1,-1.4 3.5,-2.9 2.3,-4.9 -0.4,-0.3 -0.8,-0.6 -1.2,-0.9 -4.3,-2.9 -9.2,-6.4 -10.9,-14.7 z m 2.5,27.7 -27.3,0.2 31.8,35.1 c -0.6,-3.9 -3,-7.2 -5.3,-10.2 -2.5,-3.4 -4.9,-6.6 -4.8,-10.4 v 0 -0.1 c 0.3,-1.9 2.9,-3 5.5,-4.2 2.7,-1.2 5.5,-2.4 5.1,-4.1 v 0 c -0.5,-2.2 -2.3,-3.8 -4.4,-5.6 z m 6.2,37.5 v 0 0 0 0 0 c -0.4,3.6 -2.3,6.1 -5.1,8.1 -2.9,2.1 -6.9,3.5 -11,4.7 0,0 -0.1,0 -0.1,0 v 0 c -5.3,0.8 -10.4,1.2 -15.3,1.3 -4.9,0.1 -9.7,0.1 -14.2,0 v 0 h -1.4 c -24.5,-0.6 -42.7,-1 -49.4,33.6 0,0.3 -0.2,0.6 -0.5,0.7 -0.2,0.1 -0.4,0.1 -0.6,0 v 0 0 0 0 0 0 C 419.8,552.2 411.6,544.3 405.3,535 v 0 0 -0.1 0 c -2.8,-4.2 -5.1,-8.6 -7.1,-13.3 -0.7,-1.6 -1.3,-3.2 -1.9,-4.8 v 0 0 0 c -3.1,-8.6 -4.8,-17.9 -5.4,-27.2 0,-0.1 0,-0.1 0,-0.2 -0.4,-7.3 0,-14.6 1.1,-21.8 0.8,-5.1 2.1,-9.9 3.7,-14.5 0,0 0,-0.1 0,-0.1 4.2,-11.8 11,-22.2 19.4,-31.7 0,0 0.1,-0.1 0.1,-0.1 10.6,-12.1 23.7,-22.8 37.4,-33.2 v 0 0 0 0 c 3.6,-2.8 7.2,-5.5 10.9,-8.2 4.1,-3.1 8.2,-6.2 12.2,-9.3 v 0 0 0 0 0 c 12.2,-9.4 23.9,-19 33.6,-29.6 v 0 c 0.1,-0.1 0.2,-0.2 0.3,-0.2 v 0 0 0 0 0 0 0 0 0 0 0 0 0 0 0 0 0 0 0 0 0 0 0 0 0 0 0 0 0 0 0 0 0 0 0 0 0 0 0 0 c 0.2,0 0.3,0.1 0.5,0.2 0.1,0.1 0.2,0.2 0.2,0.3 3.8,9.8 2.2,20.5 0.7,30.3 -1.5,10.1 -2.9,19.2 2.1,25.1 l 23.7,28.2 c 1.1,1.3 1.8,2.5 2.2,3.7 1,2.6 0.4,4.8 -1,6.7 -1.4,1.8 -3.6,3.2 -6.1,4.4 -3.9,1.8 -8.6,3 -12,3.7 1.4,8.2 6.2,11.6 10.4,14.5 0.5,0.3 1,0.7 1.4,1 0.1,0.1 0.2,0.1 0.2,0.2 2.1,3.2 0.1,5.4 -2.7,7.3 -0.9,0.6 -2,1.2 -3,1.8 -1.9,1.1 -3.6,2 -4.1,2.9 l 0.6,0.5 c 2.3,2 4.3,3.7 4.9,6.4 v 0.1 c 0.6,3 -2.8,4.5 -6.1,6 -2.2,0.9 -4.3,1.9 -4.5,2.9 -0.1,3.2 2.1,6.2 4.5,9.3 2.7,3.6 5.5,7.4 5.8,12.4 v 0.1 0 c 0.5,-0.2 0.5,0.1 0.4,0.4 z m -1.6,0.2 c -0.2,1.5 -0.8,2.8 -1.6,3.9 l -48.2,-24.1 16,-17 z m -2.7,5.2 c -0.5,0.5 -1.1,0.9 -1.7,1.4 -2.7,1.9 -6.5,3.3 -10.5,4.5 -5.2,0.8 -10.2,1.2 -15.1,1.3 -4.8,0.1 -9.4,0.1 -13.8,0 L 476.1,491 Z m -42.8,7.1 -6,-29.5 -13.6,29.8 c 5.9,-0.6 12.5,-0.5 19.6,-0.3 z m -21.5,0.6 14.8,-32.4 -18.9,-9.4 -1,38.5 v 0.1 l -0.1,4.3 c 1.7,-0.5 3.4,-0.9 5.2,-1.1 z m -6.9,1.5 0.1,-4.5 -16,-18.5 -18.3,21 12,32.1 c 4.3,-18.7 11.9,-26.7 22.2,-30.1 z m -23.4,31.3 -12,-31.9 -10,11.4 c 5.7,8.4 13,15.4 22,20.5 z m -22.9,-21.9 9.7,-11.1 -17.4,-4.4 c 0.4,1.1 0.9,2.2 1.3,3.3 1.8,4.3 4,8.4 6.4,12.2 z m -8.3,-17.4 18.7,4.7 -2.4,-44.8 -21.4,14 c 0.5,9 2.2,17.9 5.1,26.1 z m -5.3,-27.9 21,-13.8 -16.6,-19.2 c -1.4,4.1 -2.5,8.4 -3.2,12.9 -1,6.6 -1.4,13.4 -1.2,20.1 z m 5.1,-34.8 16,18.5 -5.9,-37.9 c -4.2,6 -7.6,12.5 -10.1,19.4 z m 11.4,-21.4 6.4,41.2 22.5,-14.8 -24.1,-32.7 c -1.6,2 -3.2,4.1 -4.8,6.3 z m 6,-7.6 24.4,33.1 24.3,-15.9 -47.5,-18.6 c -0.4,0.4 -0.8,0.9 -1.2,1.4 z m 2.3,-2.7 44.7,17.6 -31,-31.2 c -4.8,4.3 -9.5,8.8 -13.7,13.6 z m 15,-14.8 31.7,31.9 -11.2,-48.6 c -7.1,5.4 -14.1,10.9 -20.5,16.7 z m 23,-18.7 c 6.9,0.9 14.8,1.9 23.2,2.9 2.4,0.3 4.8,0.6 7.3,0.8 L 476,372.1 c -3.8,2.9 -7.7,5.8 -11.5,8.7 -3.2,2.3 -6.3,4.7 -9.4,7 z m 22.2,-16.7 9.6,19.5 20.4,-45.4 c -9,9.2 -19.3,17.6 -30,25.9 z m 32.7,-27.8 -21.8,48.6 c 7.5,0.8 15,1.6 22.2,2.4 -3,-6.2 -1.8,-14.4 -0.4,-23.3 1.3,-9.1 2.8,-18.8 0,-27.7 z m 2,53.5 -13.5,28.3 27.1,-12.2 -13.2,-15.7 c -0.1,-0.1 -0.3,-0.2 -0.4,-0.4 z m 14.7,17.5 -26.7,12 38.4,3.8 c 0,-0.5 -0.2,-0.9 -0.3,-1.4 -0.4,-1 -1,-2 -2,-3.2 z m 11.6,17.4 -38.3,-3.8 c 10.4,7 18.2,12.3 19.8,13.4 3.4,-0.6 8.2,-1.8 12.1,-3.6 2.3,-1.1 4.3,-2.4 5.5,-3.9 0.3,-0.7 0.7,-1.4 0.9,-2.1 z m -20.6,11.2 -24.3,25.7 2.7,-26.2 z m -27.7,29.4 -16.9,3.6 2.4,11.8 z m -18.6,3.9 -14.8,3.1 17.1,8.5 z m -18.8,3.5 -36,-4.4 19.8,22.9 z m -37.1,-3.2 2.3,42.9 17.5,-20 z m 1.4,-2.8 35.5,4.4 -13.7,-18.7 z m 37,3.5 9.9,-34.3 -23.7,15.5 z m 14.9,-36.9 25.8,0.5 1.3,-12.7 z m 27,-14 -9.2,-31.2 -19.9,44.3 z m -7.9,-32.9 9.1,31.1 13.6,-28.6 c -7.4,-0.8 -15.1,-1.6 -22.7,-2.5 z m 9.6,34.8 -1.3,12.6 20.6,0.4 c -3.5,-2.3 -10.6,-7.1 -19.3,-13 z m -32.1,10.3 20.3,-45.3 c -2.6,-0.3 -5.1,-0.6 -7.6,-0.9 -8.7,-1 -16.9,-2 -24,-3 z m 5.7,36.1 -6.1,-30.2 -9.6,33.5 z m -4.5,-30.8 6.2,30.5 18.1,-3.8 z m -29.1,55.7 14.9,17.3 0.9,-35.4 z m 29.5,-57.6 27.4,0.6 -2.7,26.6 z"
   id="path18"
   style="clip-rule:evenodd;fill:url(#SVGID_1_);fill-rule:evenodd"
   inkscape:connector-curvature="0" />
			<radialGradient
   id="XMLID_77_"
   cx="500.7431"
   cy="332.8963"
   r="236.4552"
   gradientUnits="userSpaceOnUse">
				<stop
   offset="0"
   style="stop-color:#78C477"
   id="stop20" />
				<stop
   offset="0.34"
   style="stop-color:#4AB749"
   id="stop22" />
				<stop
   offset="0.63"
   style="stop-color:#32A248"
   id="stop24" />
				<stop
   offset="0.82"
   style="stop-color:#109246"
   id="stop26" />
				<stop
   offset="0.92"
   style="stop-color:#09884C"
   id="stop28" />
				<stop
   offset="1"
   style="stop-color:#077D5A"
   id="stop30" />
			</radialGradient>
			<path
   id="XMLID_35_"
   class="st2"
   d="m 399.2,546.4 c -3.4,1.8 -7.5,2.2 -11.4,0.5 -20.5,-8.7 -38.3,-22.9 -51.2,-41 -12.6,-17.5 -20.7,-38.5 -22.5,-61.4 -2.6,-33.5 8.5,-64.9 28.7,-88.5 20.2,-23.7 49.4,-39.6 82.9,-42.3 13.4,-1.1 26.5,0.1 39,3.3 12.9,3.2 25.1,8.5 36,15.5 l 0.2,0.1 -0.2,0.2 c -6.1,6.6 -12.8,12.7 -19.8,18.4 -7.1,-3.9 -14.6,-6.9 -22.5,-8.8 -9.7,-2.4 -20,-3.3 -30.6,-2.5 -26.2,2.1 -49.2,14.6 -65,33.1 -15.8,18.6 -24.6,43.2 -22.5,69.4 1.4,18.1 7.8,34.5 17.6,48.2 7,9.7 15.7,17.9 25.7,24.4 0.5,1.8 1.1,3.5 1.7,5.2 v 0.1 l 0.1,0.2 c 0.7,1.8 1.3,3.6 2.1,5.4 2.2,5.2 4.8,10.2 7.9,14.9 v 0 l 0.2,0.3 c 1.1,2 2.3,3.7 3.6,5.3 z"
   style="clip-rule:evenodd;fill:url(#XMLID_77_);fill-rule:evenodd"
   inkscape:connector-curvature="0" />
		</g>
		<g
   id="g57">
			<g
   id="g46">
				<path
   id="XMLID_34_"
   class="st3"
   d="m 642.6,428.9 c -4.8,4.8 -11.9,7.3 -18.2,7.3 -17.9,0 -24.8,-12.5 -25,-24.5 -0.1,-12.1 7.5,-25.2 25,-25.2 6.3,0 12.7,2.2 17.5,6.8 l 9.1,-8.8 c -7.5,-7.4 -16.8,-11.1 -26.6,-11.1 -26.2,0 -38.5,19.3 -38.4,38.2 0.1,18.8 11.5,37.4 38.4,37.4 10.5,0 20.1,-3.4 27.5,-10.8 z"
   inkscape:connector-curvature="0"
   style="clip-rule:evenodd;fill:#339a4d;fill-rule:evenodd" />
				<polygon
   id="XMLID_33_"
   class="st3"
   points="658.5,447.4 709.5,447.4 709.5,434.8 672.2,434.8 672.2,374.8 658.5,374.8 "
   style="clip-rule:evenodd;fill:#339a4d;fill-rule:evenodd" />
				<rect
   id="XMLID_32_"
   x="719.20001"
   y="374.79999"
   class="st3"
   width="13.6"
   height="72.599998"
   style="clip-rule:evenodd;fill:#339a4d;fill-rule:evenodd" />
				<polygon
   id="XMLID_31_"
   class="st3"
   points="760.3,447.4 760.3,398.5 798.4,447.4 806.9,447.4 806.9,374.8 793.2,374.8 793.2,419.8 757.7,374.8 746.6,374.8 746.6,447.4 "
   style="clip-rule:evenodd;fill:#339a4d;fill-rule:evenodd" />
				<rect
   id="XMLID_30_"
   x="819.5"
   y="374.79999"
   class="st3"
   width="13.6"
   height="72.599998"
   style="clip-rule:evenodd;fill:#339a4d;fill-rule:evenodd" />
				<polygon
   id="XMLID_29_"
   class="st4"
   points="859.6,388.2 898,388.2 898,375 845.9,375 845.9,447.4 859.6,447.4 859.6,420.6 895.9,420.6 895.9,407.9 859.6,407.9 "
   style="clip-rule:evenodd;fill:#3c7cb9;fill-rule:evenodd" />
				<path
   class="st4"
   d="m 965,447.4 h 14.9 L 947.4,374.8 H 932.5 L 900,447.4 h 14.8 l 6.2,-13.7 h 37.9 z M 953.4,421 H 926.5 L 940,390.1 Z"
   id="path42"
   inkscape:connector-curvature="0"
   style="clip-rule:evenodd;fill:#3c7cb9;fill-rule:evenodd" />
				<path
   id="XMLID_26_"
   class="st4"
   d="m 1036.3,428.9 c -4.8,4.8 -11.9,7.3 -18.2,7.3 -17.9,0 -24.8,-12.5 -25,-24.5 -0.1,-12.1 7.5,-25.2 25,-25.2 6.3,0 12.7,2.2 17.5,6.8 l 9.1,-8.8 c -7.5,-7.4 -16.8,-11.1 -26.6,-11.1 -26.2,0 -38.5,19.3 -38.4,38.2 0.1,18.8 11.5,37.4 38.4,37.4 10.5,0 20.1,-3.4 27.5,-10.8 z"
   inkscape:connector-curvature="0"
   style="clip-rule:evenodd;fill:#3c7cb9;fill-rule:evenodd" />
				<path
   id="XMLID_25_"
   class="st4"
   d="m 1107.3,433.9 h -40.7 v -16.4 h 39.2 v -12.7 h -39.2 V 388 h 40.7 V 374.7 H 1053 c 0,24.2 0,48.5 0,72.6 h 54.3 z"
   inkscape:connector-curvature="0"
   style="clip-rule:evenodd;fill:#3c7cb9;fill-rule:evenodd" />
			</g>
			<g
   id="g54">
				<path
   class="st5"
   d="m 603.6,473 v 13.7 c 0,4.1 -2.1,6.6 -5.9,6.6 -3.7,0 -6.2,-2.3 -6.2,-6.6 V 473 H 587 v 13.7 c 0,7.2 4.9,10.7 10.7,10.7 6,0 10.4,-3.6 10.4,-10.7 V 473 Z m 28.4,14.8 -11.7,-14.9 h -3.7 v 24 h 4.5 v -16.2 l 12.6,16.2 v 0 h 2.8 v -24 H 632 Z m 12.5,-14.9 v 24 h 16.8 v -4.2 H 649 v -19.8 z m 34.4,-0.4 c -8.3,0 -12.3,6.3 -12.3,12.6 0,6.3 3.9,12.4 12.3,12.4 8.4,0 12.2,-6.2 12.3,-12.4 0.1,-6.3 -4,-12.6 -12.3,-12.6 z m 0,4.1 c 5.7,0 7.9,4.5 7.8,8.6 -0.1,3.9 -2.2,8.2 -7.8,8.2 -5.7,0 -7.8,-4.2 -7.9,-8.1 -0.1,-4.2 2.3,-8.7 7.9,-8.7 z m 37.5,14.2 c -1.6,1.6 -3.9,2.4 -6,2.4 -5.9,0 -8.2,-4.1 -8.3,-8.1 0,-4 2.5,-8.3 8.3,-8.3 2.1,0 4.2,0.7 5.8,2.3 l 3,-2.9 c -2.5,-2.4 -5.5,-3.7 -8.8,-3.7 -8.7,0 -12.7,6.4 -12.7,12.6 0,6.2 3.8,12.4 12.7,12.4 3.5,0 6.6,-1.1 9.1,-3.6 z m 28.7,-17.9 h -5.6 l -9.1,10.2 v -10.2 h -4.5 v 24 h 4.5 v -10.6 l 10,10.6 h 5.6 v -0.3 L 734.5,484.5 745.1,473 Z m 11.6,24 v -24 h -4.5 v 24 z m 23.8,-9.1 -11.7,-14.9 h -3.7 v 24 h 4.5 v -16.2 l 12.6,16.2 v 0 h 2.8 v -24 h -4.5 z m 33.1,-11.9 c -2.5,-2.4 -5.7,-3.7 -8.9,-3.7 -8.5,0 -12.7,6.2 -12.7,13 0,6.3 3.7,12.2 12.7,12.2 4.2,0 7.2,-1.6 9.6,-4.3 V 483 H 804 v 4 h 6.1 v 4.2 c -1.9,1.5 -3.5,1.9 -5.4,1.9 -6,0 -8.3,-4.1 -8.3,-8 0,-4.9 3.1,-8.8 8.3,-8.8 2.1,0 4.5,0.9 6.1,2.4 z"
   id="path48"
   inkscape:connector-curvature="0"
   style="clip-rule:evenodd;fill:#445da6;fill-rule:evenodd" />
				<path
   class="st5"
   d="M 833.2,496.9 V 488 h 12 v -4.2 h -12 v -6.5 h 12.7 V 473 h -17.2 v 23.9 z m 38.7,0 h 4.9 l -10.8,-24 h -4.9 l -10.8,24 h 4.9 l 2.1,-4.5 h 12.5 z m -3.8,-8.7 h -8.9 l 4.5,-10.2 z m 31.2,2.6 c -1.6,1.6 -3.9,2.4 -6,2.4 -5.9,0 -8.2,-4.1 -8.3,-8.1 0,-4 2.5,-8.3 8.3,-8.3 2.1,0 4.2,0.7 5.8,2.3 l 3,-2.9 c -2.5,-2.4 -5.5,-3.7 -8.8,-3.7 -8.7,0 -12.7,6.4 -12.7,12.6 0,6.2 3.8,12.4 12.7,12.4 3.5,0 6.6,-1.1 9.1,-3.6 z m 14,6.1 v -24 h -4.5 v 24 z m 27.1,0 h 4.9 l -10.8,-24 h -4.9 l -10.8,24 h 4.9 l 2.1,-4.5 h 12.5 z m -3.8,-8.7 h -8.9 l 4.5,-10.2 z m 15,-15.3 v 24 h 16.8 v -4.2 h -12.3 v -19.8 z"
   id="path50"
   inkscape:connector-curvature="0"
   style="clip-rule:evenodd;fill:#445da6;fill-rule:evenodd" />
				<path
   class="st5"
   d="m 1000.4,490.8 c -1.6,1.6 -3.9,2.4 -6,2.4 -5.9,0 -8.2,-4.1 -8.3,-8.1 0,-4 2.5,-8.3 8.3,-8.3 2.1,0 4.2,0.7 5.8,2.3 l 3,-2.9 c -2.5,-2.4 -5.5,-3.7 -8.8,-3.7 -8.7,0 -12.7,6.4 -12.7,12.6 0,6.2 3.8,12.4 12.7,12.4 3.5,0 6.6,-1.1 9.1,-3.6 z m 9.1,-17.9 v 24 h 16.8 v -4.2 H 1014 v -19.8 z m 39,0.1 v 13.7 c 0,4.1 -2.1,6.6 -5.9,6.6 -3.7,0 -6.2,-2.3 -6.2,-6.6 V 473 h -4.5 v 13.7 c 0,7.2 4.9,10.7 10.7,10.7 6,0 10.4,-3.6 10.4,-10.7 V 473 Z m 30.6,19.5 h -13.5 v -5.4 h 13 v -4.2 h -13 v -5.5 h 13.5 V 473 h -17.9 c 0,8 0,16 0,24 h 17.9 z m 26.4,-15.6 c -1.8,-3.7 -5.7,-4.8 -9.4,-4.8 -4.4,0 -9.3,2.1 -9.3,7 0,5.4 4.5,6.7 9.4,7.3 3.2,0.3 5.5,1.3 5.5,3.5 0,2.6 -2.7,3.6 -5.5,3.6 -2.9,0 -5.7,-1.2 -6.7,-3.8 l -3.8,2 c 1.8,4.4 5.5,5.9 10.4,5.9 5.3,0 10.1,-2.3 10.1,-7.6 0,-5.7 -4.7,-7 -9.7,-7.6 -2.9,-0.3 -5.3,-0.9 -5.3,-3 0,-1.8 1.6,-3.2 5,-3.2 2.6,0 4.9,1.3 5.7,2.7 z"
   id="path52"
   inkscape:connector-curvature="0"
   style="clip-rule:evenodd;fill:#445da6;fill-rule:evenodd" />
			</g>
			<polygon
   id="XMLID_1_"
   class="st6"
   points="732.1,463.4 961.2,463.4 1107.3,463.4 1107.3,458.4 961.2,458.4 732.1,458.4 585.9,458.4 585.9,463.4 "
   style="clip-rule:evenodd;fill:#818181;fill-rule:evenodd" />
		</g>
	</g>
</g>
</svg>